<?xml version="1.0" encoding="UTF-8"?>
<svg version="1.1" xmlns="http://www.w3.org/2000/svg" width="182" height="150">
<path d="M0 0 C2.16344764 0.01847416 4.32647125 0.02050778 6.48999023 0.02026367 C17.05902168 0.05804511 17.05902168 0.05804511 18.20678711 1.20581055 C18.33216452 3.34888951 18.38253075 5.4965994 18.39428711 7.64331055 C18.4084668 8.81764648 18.42264648 9.99198242 18.43725586 11.2019043 C18.20678711 14.20581055 18.20678711 14.20581055 16.20678711 16.20581055 C13.63099326 16.45110636 11.15449704 16.57922848 8.57397461 16.61987305 C7.82213898 16.6392392 7.07030334 16.65860535 6.29568481 16.67855835 C3.89116812 16.73840202 1.48660367 16.78475781 -0.91821289 16.83081055 C-2.54714017 16.868986 -4.17604717 16.90803748 -5.80493164 16.94799805 C-9.80086095 17.04410721 -13.79688476 17.12811996 -17.79321289 17.20581055 C-18.04337162 20.62223813 -18.04337162 20.62223813 -17.79321289 24.20581055 C-14.64547382 26.30430326 -14.02511217 26.44431554 -10.46118164 26.3659668 C-9.15528076 26.34796021 -9.15528076 26.34796021 -7.82299805 26.32958984 C-6.88504395 26.30936768 -5.94708984 26.28914551 -4.98071289 26.26831055 C-2.99245638 26.25194289 -1.00416899 26.23902447 0.98413086 26.22924805 C2.52109619 26.22103027 2.52109619 26.22103027 4.08911133 26.21264648 C9.08995269 26.20168144 14.08283373 26.2561715 19.08178711 26.39331055 C19.97744385 26.39919189 20.87310059 26.40507324 21.79589844 26.41113281 C29.66062326 26.67721859 34.36013121 29.60668994 40.08178711 34.83081055 C43.46976176 40.21171147 44.57827985 45.55456759 43.93334961 51.89331055 C42.57630166 57.67398234 40.02669754 61.03287815 35.53491211 64.83081055 C30.00923219 68.09429936 24.56721404 68.44227828 18.26928711 68.33081055 C17.58543945 68.32178711 16.9015918 68.31276367 16.19702148 68.3034668 C14.53345424 68.28020012 12.8700708 68.24434222 11.20678711 68.20581055 C11.99876551 64.32841631 13.65808786 62.2323909 16.20678711 59.20581055 C16.70178711 58.21581055 16.70178711 58.21581055 17.20678711 57.20581055 C17.86678711 57.20581055 18.52678711 57.20581055 19.20678711 57.20581055 C19.41303711 56.58706055 19.61928711 55.96831055 19.83178711 55.33081055 C21.75454599 52.3592741 23.87273238 52.07556395 27.20678711 51.20581055 C27.45694584 47.78938296 27.45694584 47.78938296 27.20678711 44.20581055 C25.72178711 43.21581055 25.72178711 43.21581055 24.20678711 42.20581055 C23.95541992 43.08366211 23.70405273 43.96151367 23.44506836 44.8659668 C22.15999141 48.33202606 20.62182593 50.70875176 18.39428711 53.64331055 C17.68401367 54.5869043 16.97374023 55.53049805 16.24194336 56.50268555 C15.5703418 57.3947168 14.89874023 58.28674805 14.20678711 59.20581055 C13.24390404 60.59850925 12.28471743 61.99378303 11.33178711 63.39331055 C10.63053711 64.32143555 9.92928711 65.24956055 9.20678711 66.20581055 C8.54678711 66.20581055 7.88678711 66.20581055 7.20678711 66.20581055 C6.88387695 67.02952148 6.88387695 67.02952148 6.55444336 67.86987305 C4.75312663 70.99215538 2.29826967 73.19760899 -0.35571289 75.58081055 C-0.89220459 76.06614258 -1.42869629 76.55147461 -1.98144531 77.05151367 C-10.68457933 84.79454314 -19.17432834 90.831028 -31.22290039 90.4206543 C-37.93301744 89.85977825 -42.94045305 86.75744448 -47.79321289 82.20581055 C-48.12321289 81.21581055 -48.45321289 80.22581055 -48.79321289 79.20581055 C-48.01719727 79.20323242 -47.24118164 79.2006543 -46.44165039 79.19799805 C-35.56973005 78.80878849 -26.55231368 75.77513614 -17.79321289 69.20581055 C-25.71321289 68.87581055 -33.63321289 68.54581055 -41.79321289 68.20581055 C-40.29092383 62.19665431 -37.37103264 57.73158391 -32.2512207 54.22875977 C-25.70003583 51.50235287 -17.44273642 52.40860088 -10.43310547 52.79296875 C-3.42862495 53.30120143 -3.42862495 53.30120143 2.45825195 50.17944336 C3.97625597 47.90488357 5.17706656 45.73511492 6.20678711 43.20581055 C5.23237671 43.19179199 5.23237671 43.19179199 4.23828125 43.17749023 C1.24789372 43.12325972 -1.74101665 43.03971904 -4.73071289 42.95581055 C-5.75229492 42.94163086 -6.77387695 42.92745117 -7.82641602 42.9128418 C-15.98642685 42.65213858 -22.24635354 41.05871916 -28.66821289 35.89331055 C-32.93939596 30.4915202 -34.39056725 25.48207136 -34.13305664 18.6940918 C-33.30912561 12.66140134 -30.73053146 8.65079064 -26.04321289 4.83081055 C-18.45911584 -0.87319522 -9.01127836 -0.07992955 0 0 Z " fill="#292F3E" transform="translate(98.793212890625,45.794189453125)"/>
<path d="M0 0 C0 0.99 0 1.98 0 3 C-0.76183594 3.35191406 -1.52367188 3.70382813 -2.30859375 4.06640625 C-25.21668019 15.01996069 -39.74548573 34.66361882 -49.12890625 57.78125 C-52.83770579 68.81806408 -53.09031113 79.41868269 -48 90 C-43.39160945 98.41589271 -36.42535441 102.05972147 -28 106 C-31.01379088 108.45520033 -32.81802331 109.47867924 -36.80859375 109.2890625 C-47.65769566 107.85798667 -55.39214874 104.68328684 -62.45703125 96.18359375 C-68.60053346 87.48937164 -68.81844308 75.26283109 -67.375 65.0625 C-62.96558545 43.10303152 -50.64063892 18.34712409 -31.60546875 5.3671875 C-21.42342241 0.02428462 -11.20552964 -0.56498469 0 0 Z " fill="#292F3E" transform="translate(93,32)"/>
<path d="M0 0 C7.20256493 5.05780115 11.90079579 10.3655374 14 19 C14.495 22.465 14.495 22.465 15 26 C21.27 26 27.54 26 34 26 C32.85588776 30.57644895 30.83613399 32.54697438 27.5625 35.6875 C27.05912109 36.18572266 26.55574219 36.68394531 26.03710938 37.19726562 C21.153684 41.97692632 21.153684 41.97692632 16.875 42.0625 C15.92625 42.041875 14.9775 42.02125 14 42 C13.67 44.64 13.34 47.28 13 50 C8.05183286 52.80396138 3.38317715 51.77350507 -2 51 C-3.21403924 47.1795968 -2.42624756 44.62732724 -1.4921875 40.76953125 C-0.08437744 32.84780641 0.28905542 24.99997081 -4 18 C-8.42786049 12.58194286 -14.29616961 11.70690654 -21 11 C-30.65453167 10.48661279 -40.45051357 10.36895824 -50 12 C-48.31286065 6.93858194 -43.45720346 5.21404705 -38.86669922 2.87548828 C-27.02049885 -2.68041997 -12.17660705 -6.69606762 0 0 Z " fill="#292F3E" transform="translate(119,20)"/>
<path d="M0 0 C4.49797113 1.68673918 8.72886302 3.81673892 13 6 C10.43727589 8.46021515 9.17384445 8.98735677 5.5625 9.25 C2.60080788 9.04216196 -0.1206966 8.69801294 -3 8 C0.22791555 5.8480563 1.28400809 5.79913557 5 6 C4.01 5.01 3.02 4.02 2 3 C1.67 3.66 1.34 4.32 1 5 C0.67 3.35 0.34 1.7 0 0 Z " fill="#222730" transform="translate(52,132)"/>
<path d="M0 0 C0.69738281 0.00451172 1.39476563 0.00902344 2.11328125 0.01367188 C3.82555803 0.0253998 5.53779033 0.04333347 7.25 0.0625 C7.25 1.0525 7.25 2.0425 7.25 3.0625 C4.4375 4.625 4.4375 4.625 1.25 6.0625 C0.26 5.7325 -0.73 5.4025 -1.75 5.0625 C-0.76 4.0725 0.23 3.0825 1.25 2.0625 C-1.06 1.7325 -3.37 1.4025 -5.75 1.0625 C-6.08 3.0425 -6.41 5.0225 -6.75 7.0625 C-7.41 6.4025 -8.07 5.7425 -8.75 5.0625 C-8.75 4.4025 -8.75 3.7425 -8.75 3.0625 C-9.74 3.0625 -10.73 3.0625 -11.75 3.0625 C-11.75 2.4025 -11.75 1.7425 -11.75 1.0625 C-7.88276369 -0.20332219 -4.01848738 -0.0493765 0 0 Z " fill="#242A35" transform="translate(85.75,31.9375)"/>
<path d="M0 0 C-2.5654594 2.5654594 -4.47686668 2.54046087 -8 3 C-8.33 3.99 -8.66 4.98 -9 6 C-8.34 6.33 -7.68 6.66 -7 7 C-7.33 7.66 -7.66 8.32 -8 9 C-11.83902629 6.66320139 -14.20953589 5.13718891 -16 1 C-10.65097076 0.40801257 -5.39115154 -0.14187241 0 0 Z " fill="#242830" transform="translate(66,124)"/>
<path d="M0 0 C0.66 0.33 1.32 0.66 2 1 C1.34 1.70125 0.68 2.4025 0 3.125 C-2.30233203 6.43460229 -2.36630156 8.06225823 -2 12 C-2.99 12 -3.98 12 -5 12 C-5.33 14.97 -5.66 17.94 -6 21 C-6.33 21 -6.66 21 -7 21 C-7.51269953 14.05007306 -7.02673384 8.83135703 -3 3 C-2.02590007 1.97475401 -1.03199801 0.96694369 0 0 Z " fill="#252931" transform="translate(72,51)"/>
<path d="M0 0 C0.99 0.33 1.98 0.66 3 1 C3.05386629 3.12472576 3.09273071 5.24983652 3.125 7.375 C3.14820312 8.55835938 3.17140625 9.74171875 3.1953125 10.9609375 C3 14 3 14 1 16 C-1.625 16.125 -1.625 16.125 -4 16 C-2.6875 14 -2.6875 14 -1 12 C-0.01 12 0.98 12 2 12 C2 8.7 2 5.4 2 2 C1.34 2 0.68 2 0 2 C0 1.34 0 0.68 0 0 Z " fill="#252632" transform="translate(114,46)"/>
<path d="M0 0 C5.94 0.33 11.88 0.66 18 1 C18 1.33 18 1.66 18 2 C12.06 2.33 6.12 2.66 0 3 C0 2.01 0 1.02 0 0 Z " fill="#323748" transform="translate(59,111)"/>
<path d="M0 0 C2.64 0 5.28 0 8 0 C7.67 1.32 7.34 2.64 7 4 C6.01 4 5.02 4 4 4 C4 3.01 4 2.02 4 1 C2.68 0.67 1.36 0.34 0 0 Z " fill="#2C2D33" transform="translate(145,46)"/>
<path d="M0 0 C-1.125 1.5 -1.125 1.5 -3 3 C-6.1875 3.1875 -6.1875 3.1875 -9 3 C-9 2.34 -9 1.68 -9 1 C-3.375 -1.125 -3.375 -1.125 0 0 Z " fill="#24282F" transform="translate(73,35)"/>
</svg>
